<?xml version="1.0" encoding="utf-8"?>
<!-- Generator: Adobe Illustrator 22.0.1, SVG Export Plug-In . SVG Version: 6.00 Build 0)  -->
<svg version="1.1" id="Layer_1" xmlns="http://www.w3.org/2000/svg" xmlns:xlink="http://www.w3.org/1999/xlink" x="0px" y="0px"
	 viewBox="0 0 700 250" style="enable-background:new 0 0 700 250;" xml:space="preserve">
<style type="text/css">
	.st0{fill:#FFB188;}
	.st1{fill:#E67279;}
	.st2{fill:#9899F4;}
	.st3{fill:#78B9E4;}
	.st4{fill:#FFFFFF;}
</style>
<g>
	<circle class="st0" cx="129.5" cy="163.5" r="74"/>
	<g>
		<path class="st0" d="M129.5,90c40.5,0,73.5,33,73.5,73.5S170,237,129.5,237S56,204,56,163.5S89,90,129.5,90 M129.5,89
			C88.4,89,55,122.4,55,163.5S88.4,238,129.5,238s74.5-33.4,74.5-74.5S170.6,89,129.5,89L129.5,89z"/>
	</g>
</g>
<circle class="st1" cx="179" cy="92" r="35"/>
<circle class="st2" cx="121" cy="57" r="27"/>
<circle class="st3" cx="167" cy="26" r="17"/>
<g>
	<path d="M198.4,81.1c0.2,0.1,0.4,0.2,0.5,0.5c0,0,0,0,0,0c0,0,0,0,0,0.1c0.1,0.1,0.1,0.2,0.1,0.4v7c0,0.6-0.5,1-1.1,1
		c-0.6,0-1.1-0.4-1.1-1v-5.4l-5.1,2.3c-0.6,0.2-1.2,0-1.5-0.4c-0.3-0.5-0.1-1.1,0.5-1.3l4.7-2.1l-4.7-2.1c-0.6-0.2-0.8-0.8-0.5-1.3
		c0.3-0.5,0.9-0.7,1.5-0.4L198.4,81.1z M199,102c0,0.1,0,0.3-0.1,0.4c-0.1,0.1-0.1,0.2-0.2,0.3c-0.1,0.1-0.2,0.1-0.3,0.2l-6.7,3
		c-0.6,0.2-1.2,0-1.5-0.4c-0.3-0.5-0.1-1.1,0.5-1.3l4.7-2.1l-4.7-2.1c-0.6-0.2-0.8-0.8-0.5-1.3c0.3-0.5,0.9-0.7,1.5-0.4l5.1,2.3V95
		c0-0.6,0.5-1,1.1-1c0.6,0,1.1,0.4,1.1,1V102z M164.6,102l4.7,2.1c0.6,0.2,0.8,0.8,0.5,1.3s-0.9,0.7-1.5,0.4l-6.7-3
		c-0.2-0.1-0.4-0.2-0.5-0.5c0,0,0,0,0,0c0,0,0,0,0-0.1c-0.1-0.1-0.1-0.2-0.1-0.4v-7c0-0.6,0.5-1,1.1-1c0.6,0,1.1,0.4,1.1,1v5.4
		l5.1-2.3c0.6-0.2,1.2,0,1.5,0.4s0.1,1.1-0.5,1.3L164.6,102z M163.2,83.6V89c0,0.6-0.5,1-1.1,1c-0.6,0-1.1-0.4-1.1-1v-7
		c0-0.1,0-0.3,0.1-0.4c0.1-0.1,0.1-0.2,0.2-0.3c0.1-0.1,0.2-0.1,0.3-0.2l6.7-3c0.6-0.2,1.2,0,1.5,0.4s0.1,1.1-0.5,1.3l-4.7,2.1
		l4.7,2.1c0.6,0.2,0.8,0.8,0.5,1.3s-0.9,0.7-1.5,0.4L163.2,83.6z M179.5,73.1c0.2-0.1,0.3-0.1,0.5-0.1c0.2,0,0.4,0,0.5,0.1l6.7,3
		c0.6,0.2,0.8,0.8,0.5,1.3c-0.3,0.5-0.9,0.7-1.5,0.4l-5.1-2.3V81c0,0.6-0.5,1-1.1,1c-0.6,0-1.1-0.4-1.1-1v-5.4l-5.1,2.3
		c-0.6,0.2-1.2,0-1.5-0.4c-0.3-0.5-0.1-1.1,0.5-1.3L179.5,73.1z M180.5,110.9c-0.2,0.1-0.3,0.1-0.5,0.1c-0.2,0-0.4,0-0.5-0.1l-6.7-3
		c-0.6-0.2-0.8-0.8-0.5-1.3c0.3-0.5,0.9-0.7,1.5-0.4l5.1,2.3V103c0-0.6,0.5-1,1.1-1c0.6,0,1.1,0.4,1.1,1v5.4l5.1-2.3
		c0.6-0.2,1.2,0,1.5,0.4c0.3,0.5,0.1,1.1-0.5,1.3L180.5,110.9z M181.2,90.7l-0.3,5.4c0,0.6-0.6,1-1.2,0.9c-0.6,0-1.1-0.5-1.1-1.1
		l0.3-5.4l-5.9-3c-0.5-0.3-0.7-0.9-0.4-1.4c0.3-0.5,1-0.6,1.5-0.4l6,3.1l6.4-2.5c0.6-0.2,1.2,0,1.5,0.5c0.2,0.5,0,1.1-0.6,1.3
		L181.2,90.7z"/>
</g>
<g>
	<path class="st4" d="M131.3,188.8h-8.7v-10.3h-0.2c-3,7-10,11.6-19.1,11.6c-12.8,0-25-9.2-25-26c0-15,11-26,26.6-26
		c15.6,0,26.4,10.6,26.4,26.4V188.8z M121.9,164.1c0-10-6.8-17.2-17-17.2s-17,7.2-17,17.2s6.8,17.2,17,17.2S121.9,174.1,121.9,164.1
		z"/>
	<path class="st4" d="M174.2,160.3v-0.6c0-9.1-4.8-12.8-11.8-12.8c-7.1,0-11.8,3.7-11.8,12.8v29.1H141v-29.1
		c0-14.6,8.6-21.6,21.3-21.6c12.6,0,21.2,7,21.2,21.7v0.5H174.2z"/>
	<path class="st4" d="M218.2,188.8v-52.1c0-13.3,8.2-20.2,20.1-20.2s20,6.9,20,20.2v0.4h-2.5v-0.4c0-11.8-7-17.8-17.5-17.8
		s-17.5,6-17.5,17.8v9.6h31.9v2.3h-31.9v40.2H218.2z"/>
	<path class="st4" d="M309.6,139.4h2.6v25.9c0,16.3-9.8,24.8-24.4,24.8s-24.4-8.5-24.4-24.8v-25.9h2.6v25.9
		c0,14.3,8.6,22.4,21.8,22.4s21.8-8.1,21.8-22.4V139.4z"/>
	<path class="st4" d="M368.3,188.8v-25.9c0-14.3-8.6-22.4-21.8-22.4s-21.8,8.1-21.8,22.4v25.9H322v-25.9c0-16.3,9.8-24.8,24.4-24.8
		s24.4,8.5,24.4,24.8v25.9H368.3z"/>
	<path class="st4" d="M382.2,188.8v-71h2.6v33.1h0.2c3.7-8.1,11.4-12.8,21.7-12.8c14.5,0,24.3,8.5,24.3,24.8v25.9h-2.6v-25.9
		c0-14.3-8.6-22.4-21.8-22.4c-13.1,0-21.8,8.2-21.8,22.4v25.9H382.2z"/>
	<path class="st4" d="M465.4,190.1c-15.6,0-26.6-11-26.6-26s11-26,26.6-26c15.6,0,26.6,11,26.6,26S481,190.1,465.4,190.1z
		 M489.3,164.1c0-13.5-9.6-23.6-23.9-23.6s-23.9,10.1-23.9,23.6s9.6,23.6,23.9,23.6S489.3,177.6,489.3,164.1z"/>
	<path class="st4" d="M546,139.4h2.6v25.9c0,16.3-9.8,24.8-24.4,24.8s-24.4-8.5-24.4-24.8v-25.9h2.6v25.9c0,14.3,8.6,22.4,21.8,22.4
		s21.8-8.1,21.8-22.4V139.4z"/>
	<path class="st4" d="M592.2,152.3c-0.2-7.1-6.1-11.8-15.7-11.8s-15.6,4.7-15.6,12.3c0,16.7,35.4,2.5,35.4,22.2
		c0,8.7-7.7,15.1-19.7,15.1s-19.4-6.3-19.7-14.7h2.6c0.3,7.2,6.9,12.4,17.1,12.4c10.5,0,17-5.3,17-12.8c0-16.7-35.4-2.5-35.4-22.2
		c0-8.6,7.1-14.7,18.3-14.7c11.2,0,18.1,6.1,18.3,14.2H592.2z"/>
	<path class="st4" d="M605.3,164.3c0.1,13.4,9.6,23.4,23.9,23.4c10.1,0,17.9-5,21.6-12.8h2.8c-3.8,9.2-12.8,15.2-24.4,15.2
		c-15.6,0-26.6-11-26.6-26s11-26,26.6-26c15.6,0,26.5,11,26.5,26v0.2H605.3z M605.3,161.9H653c-1-12.4-10.3-21.4-23.8-21.4
		S606.3,149.5,605.3,161.9z"/>
</g>
</svg>
